<svg height="1024" viewBox="0 0 1024 1024" width="1024" xmlns="http://www.w3.org/2000/svg" fill="currentColor"><style>/* A favicon renders as its own document, so currentColor would fall back to black and disappear in a dark tab bar. Ink on light, paper on dark. */svg{color:#14120c}@media (prefers-color-scheme:dark){svg{color:#f4f3ee}}</style><path d="m554.34 377.06c1.72.44 1.99-.72 3-1.49 6.15-4.74 15.35-15 21.02-20.98 2.14-2.26 12.24-14.95 13.49-15.52.44-.2 1.64-.25 1.48.49-2.77 3.69-7.16 7.7-9.4 11.6-1.27 2.22-1.42 4.92-2.78 7.22-2.37 4.01-7.34 8-7.33 12.67 7.73-6.99 14.02-15.18 20.49-22.99l.1 1.86 1.4.12c8.04-8.41 16.87-16.25 23.82-25.27 3.04-9.96 9.41-19.47 13.19-28.72 8.5-20.79 13.09-44.01 26.48-62.5-4.3-1.92-6.33-2.02-6.98-7.49 2.62-.38 3.03 2.14 3.01 4h1.48c8.15-7.61 18.4-10.46 26.56-18.46 2.73-2.67 9.44-9.81 8.46-13.54l-10.02 10.99c-3.28 1.41.34-5.1 1.05-5.96 1.38-1.67 3.35-2.21 4.51-3.49 2.05-2.28 13.65-14.08 13.94-15.06.16-.52.28-1.63-.48-1.47l-18.01 15.99v-3.01c8.33-5.22 13.54-15.88 23.5-17.98 2.3 4.38-3.25 7.13-4.51 10.08-5.14 12.09-15.26 27.95-25.99 36.92-3.11 2.6-7.91 4.75-11.23 7.7-8.82 7.84-15.45 37.55-20.24 49.82-12.28 31.42-24.77 50.95-47.52 75.48-10.47 11.29-23.01 21.23-32.15 33.48 3.93 7.05 3.22 11.69-4.4 15.06-.54 1.85 1.57 3.21 2.85 4.37 12.94 11.72 28.46 16.25 33.51 35.26 3.13 11.78-1.08 23.95.91 36.09 1.73 10.58 6.28 20.82 8.93 31.07 3.1 11.98 5.17 24.27 8.89 36.11 1.96 6.22 10.61 23.83 9.94 28.99-.19 1.42-1.64 2.32-1.73 3.85-.18 3.07 2.19 8.12 1.88 11.63l2.92.64c.26 9.17 3.84 17.99 4.66 27.23.22 2.49-1.17 4.73-.7 7.64 1.24 7.57 8.79 22.97 11.68 31.36.87 2.52.68 5.75 1.3 7.46.5 1.37 3.11 1.1 2.98 3.16l-1.94 5.1-8.05 1.51c.85 4.17 2.31 8.37 2.89 12.6 2.46 17.89 2.24 39.85 1.09 57.88-.97 15.18-3.6 23.36-2 38.99.26 2.5-1.72 8.88-2.8 11.21-2.03 4.35-6.98 8.01-6.66 12.32l-1.05.98-3.47-.99 1.99 2.01-.49 1c-1.81 2.92-6.71 3.08-8.03 3.93-8.3 5.35-11.74 13.51-17.94 20.11-22.96 24.42-50.3 42.6-71.48 69.52-1.66 2.11-1.78 4.61-5.05 5.95l6.27-.35c9.21 6.17-4.95 11.83-4.33 16.31.07.52 1.87.44 2.04 1.2.49 2.19-.33 4.88.27 7.58.42 1.89 4.78 12.42 5.89 14.11 2.22 3.36 7.13 6.62 10.81 8.19 7.14 3.04 15.16.99 16.07 10.96.29 3.21-.01 5.03-2.04 7.5.54.39 10.98-1.08 8 1.99-3.16 2.06-6.65-.43-9.24.18-21.95 5.2-47.37 10.99-70.2 5.78-14.65.67-29-1.62-43.55.05 2.8-8.07 16.96 2.06 20.99-3.99-13.48-.91-26.99-1.41-40.54-1.05-.97.03-11.24 2.4-8.97-.96 3.03-4.48 22.72 1.23 28.51-1.01l-7.99-1c.46-1.49 5.16-1.87 6.51-1.98 17.09-1.31 34.46.95 51.94-.05 1.18-.07 7.24 2.44 6.06-.94-.72-2.07-5.82-7.41-7.53-9.54-1.87-2.33-.05-4.33-5.49-4.5-2.38-.07-1.07.3-1.49 1.53-2.42 7.16-2.02 7.52-10.63 8.37-19.59 1.92-42.53-.02-62.86 1.14-3.65.21-9.01 2.64-12.24 1.26-1.45-.62-1.54-.26-1.28-2.27l5.01-2c-11.26-.59-23.54 4.26-34.54 3.03-1.49-.17-3.08-.21-3.46-2.03l56-6.02c-.18-1.35-1.36-1.75-2.54-1.95-15.78-2.67-38.45 1.94-55-.08-19.07 2.01-38.2 3.74-57.46 3.03-.23-1.75 2.27-.94 3.48-.99 3.98-.16 8.02.26 12-.01 14.97-1 29.95-3.52 44.97-4.03 14.65-.5 33.66-1.01 48.08 0 10.32.72 20.94 5.2 31.46 3.03-3.52-4.24-9.82-5.84-13-10.48s-2.84-10.41-5.56-15.44c-3.73-6.9-13.16-13.37-18.24-20.76-4.08-5.93-8.4-12.89-7.19-20.3 1.39-.04 2.87.2 4.23-.25 3.42-1.12 17.89-14.45 22.27-17.76 2.79-2.11 3.59-5.55 7.91-5.01 5.43.67 3.6 3.94 9.99-2.09 2.27-2.14 5.77-8.65 6.89-9.62 14.19-12.26 18.24-26.89 27.88-42.61 10.65-17.37 22.08-26.35 39.13-36.87 5.33-3.29 11.64-3.76 14.92-10.08 12.26-23.7-10.33-55.88-10.34-80.59-6.27-1.74-12.65-2.91-17.87-7.13.69 8.01 3.63 17.72 3.98 25.52.1 2.09.6 2.86-1.99 2.48-1.1-4-.43-8.45-1.08-12.42-4.64-28.47-26.26-59.54-22.67-87.82 1.05-8.3 5.34-17.12 6.44-25.56l3.3-8.19-5.91 27.57c-.63 9.38-1.88 17.42.03 26.82.54 2.67 3.04 5.01 1.89 8.61h4.02c-1.78 8.37 3.21 13.84 5.66 20.82 1.73 4.9 5.82 22.01 10.85 23.16 4.36 1 3.8-15.54 3.25-18.26-.77-3.77-5.33-8.96-6.31-12.69-1.85-7.04-4.69-14.55-6.18-20.82s-.98-18.28-.05-24.48c.84-5.61 6.23-14.17 6.62-18.5.21-2.33-1.86-2.92-1.49-5.25.68-4.31 5.79-11.28 7.43-15.69 4.44-11.95 4.24-30.83-1.24-42.34-10.85-22.76-28.63-43.47-40.38-64.62-5.88-10.59-9.43-27.68-10.16-39.84-.37-6.16-1.86-16.19 7-15.49.5-3.07-.9-5.22-3.5-6.75-18.38 11.81-43.33 4.56-49.48-16.82-1.5-.92-6.98 2.7-7.52 3.58-4.6 7.56 12.34 29.65 15.87 37.12 7.01 14.8 6.13 25.18-1.01 39.75-.77 1.56-8.2 15.16-10.37 13.12 10.75-15.16 18.01-34.13 8.42-51.96-.71-1.32.32-2.57-2.42-2.02 10.85 23.62-.85 47.46-17.99 63.99-1.17-1.27 10.62-12.14 3.49-10.02-.32.1-.52 1.55-1.23 1.98-2.59 1.56-6.48 2.77-8.62 4.19-7.76 5.17-19.43 25.29-9.62 32.32 1.82 1.3 3.47 2.08 5.49.55l.48 1.97-6.98-.51-7.01-6.48c-.26 6.74 4.65 15.61 11.99 16.01.29 1.65-2.54 1.15-3.51 1.01-6.75-.95-9.37-6.9-11.25-12.76s-.82-4.16-4.08-9.92-4.88-8.94-4.07-15.76c.29-2.5 3.7-7.21-.14-7.19s-8.93 2.59-11.94-1.89c7.02.27 16.27 2.46 15.99-7.49-9.43 3.45-21.34 3.25-23.94-8.56-.2-.91-.73-3.74.94-3.44.88 10.03 9.31 11.98 18.01 10.99.56-4.02-6.03-.63-8.74-3.25-.68-.65-3.92-7.35-4.08-8.51-.5-3.68 1.75-6.44 4.82-8.24-.2 2.66-2.24 3.34-2.71 6.32-1.01 6.44 6.41 10.42 12.14 9.63 7.85-1.08 16.75-14.96 16.66-22.45-.14-11.08-10.28-21.87-11.82-34.26-.77-6.19.45-11.23.73-17.24l-3.92 7.56-3.05 14.43c-1.98-11.06 7.19-32.51 16.07-39.37 5.07-3.91 15.87-5.13 16.7-5.85 1.36-1.18 1.25-6.61 7.33-6.39 1.17-2.74-.94-4.98-1.12-7.89-1.44-23.6 8.15-38.06 27.1-50.91 5.79-3.93 17.7-12.02 23.89-5.03 1.02 1.15.72 3.25 1.64 3.51 2.5.69 8.16.42 11.6 1.21 11.34 2.62 10.61 5.21 17.71 11.29 5.24 4.48 10.06 1.34 15.56 1.35 10.68.03 4.95 10.53 5.5 11.07.26.25 3.47.45 6.03 3.53 2.19 2.63 3.9 3.69 4.75 4.7s.49 4.09 1.52 5.49c.7.95 3.47 1.63 4.64 2.86 3.25 3.43 2.24 7.47.58 11.44l-5.51 7.98c.8.71 15.88-10.33 18.1-11.4 2.99-1.45 5.55-.61 7.82-2.09 13.72-8.97 25.77-27.66 40.79-35.79 5.72-8.79 6.7-19.62 11.89-28.6 11.42-19.77 30.28-39.6 39.13-61.87 4.61-11.59-.54-15.11.27-23.65.36-3.82 5.36-11.7 5.79-17.38.27-3.5-1.6-7.44-.79-11.21 4.27 1.81 3.39 10.46 3.02 14.53s-3.51 10.03-3.68 14.12c-.11 2.76 1.44 5.97 1.63 8.87 1.55 24.33-31.39 65.36-44.37 86.59-4.82 7.88-7.7 17.19-13.62 24.38l-38.48 32.51c-1.83 3 3.99 17.53 4.5 22zm-99.02-74.99c-6.44-.37-14.14.06-17.99 5.98 2.78-.34 4.88-2.13 7.74-2.75 2.59-.57 5.19-.17 8.1-.95 1.78-.48 2.59.29 2.16-2.28zm0 7-17.47 10.01c-5.35 4.13-9.26 9.38-13.03 14.98.07-10.86 11.75-15.51 18.5-21.99-1.63-.23-2.99.33-4.37 1.12-2.12 1.22-13.63 10.11-15.19 11.81-6.88 7.57-9.56 20.08-9.44 30.05 2.49-.03 3.86-17.44 6.98-13.99l1.01 3.5c3.52-6.1 5.95-14.87 12.49-18.52-2.01 5.55-6.77 9.38-9.19 14.81-1.08 2.43-4.54 13.47-3.29 15.2 4.87-5.61 7.59-13.3 11.76-19.73 3.69-5.69 8.68-11.68 13.23-16.77l-1.99-1.48c4.72-1.1 11.64-2.94 9.99-9.01zm31 24.99c-1.34-.67-2.83-6.57-2.87-7.45-.11-2.69 2.62-6.53 2.61-7.07-.01-.35-3.68-5.06-4.2-5.5-2.78-2.35-19.65-7.27-21.64-4.39-5.56 8.76.3 15.78-1.13 24.67-.38 2.34-2.48 10.53-3.23 12.76-.61 1.79-6.05 11.42-5.52 11.97 4.09-.39 5.55-5.28 7.18-8.31l5.8-20.68c2.86 3.79 1.68 10.45 3.54 13.97 1.46 2.76 9.54 5.47 9.58 10.52.04 6.09-17.43 5.62-14.68 14.54 2.34 7.58 14.19 6.91 19.93 3.82 1.51-.81 2.95-3.32 4.11-3.48 3.78-.53 10.75 4.21 17.79 2.38.94-.24 14.7-9.51 16.21-10.78 2.76-2.3 7.67-6.92 5.8-10.71-1.42-2.88-4.75-2.83-5.12-3.43-.77-1.25.72-4.65-1.68-5.84l-4.5 2.52c-2.99 1.08-.18-6.09-1.15-8.86-.81-2.31-4.93-2.03-5.68-4.31l-.16-8.34c-4.4.77-8.9 1.56-13.41.9-3.23-.47-4.71-2.29-7.58-2.9l4.97 8.5-4.51 1.42-.47 4.08zm-39.99 4.99 1.99-15.99c-11.44 9.65-18.72 24.19-23.98 38 11.08-12.7 32.11-17.3 27.98-38-5.99 2.99.47 14.63-5.99 15.99zm6 6.01c1.67-6.6 5.81-12.37 4.42-19.48-.19-.98.09-2.78-1.41-2.51.95 12.28-5.77 22.98-15.48 30.03-1.6 1.16-3.74.87-5.62 2.38s-4.73 7.48-6.92 9.58c4.68.32 6.9-7.87 8.01-8.99 2.43-2.44 1.12 3.06 2.48 2.98 5.89-3.32 9.74-9.94 14.5-13.98-2.44 7.7-8.81 14.65-14 20.99 9.32-3.2 14.32-14.39 16.99-22.99-.15-.2-2.55 1.62-2.99 2h.02zm-34.01 18.99c.65-4.83 2.88-8.89 2-13.99-2.25.95-2.59 5.42-2.86 7.63-.16 1.3-1.05 6.1.86 6.37zm161-6.98-22.99 22.51 2.98.49-.98 6 13.45-16.04 7.54-12.95zm-37.99 50.99c.25-1.13-.2-2.76 0-4.01l2.53.09c.83-2.05.26-4.24.68-6.36.47-2.35 3.54-6.18-.21-8.72l-2.47 11.04-3.53 5.95c.36-5.42 4.66-12.28 5.06-17.5.34-4.52-3.09-7.79-2.06-12.49l9.54 19.95c1.36.84 7.58 8.85 8.45 4.53-8.94-12.32-14.83-27.06-15-42.49-3.08-.35-4.81 3.08-7.66 4.84-11.42 7.07-27.12 12.64-33.87 25.13-3.83 7.08-6.07 16.81-5.21 24.8 3.59 2.26 4.84 7.25 7.78 10.74 1.78 2.12 13.27 11.23 14.96 9.48-.1-6.21.72-12.3 1-18.51.05-1.21-.75-3.71.99-3.48l.44 6.49-1.95 19.49c-7.41-3.83-14.22-8.24-20.51-13.73-4.22-9.07-8.02-16.77-3.95-26.75l-2-.51c-4.24 8.58-6.21 17.01-7 26.51-.17 2.09 2.07 4.12-1 5.99 3.58 4.76 10.1-1.23 12.98 3.49h-12.01v3.01c2.47-.1 5.02.22 7.5 0 3.12-.29 9.57-1.9 12.33-.73.33.14 1.93 3.43 6.18 1.75-1.03 2.8-16.31 5.57-17 4.98l.99-3.99c-2.94.3-6.78-1.16-8.98 1.49.95 2.86 7.86 0 6.99 2.99-.39 1.31-7.67-1.06-7 3.5l10.99-1.99c.45 4.43-7.43.65-4 5.52l9.01-.51c-.3 1.71-2.04 1.82-3.41 2.17-2.46.62-6.61-1.2-6.58 1.31 1 2.26 3.53.49 3.84.69.39.25.54 2.31 2.17 3.29 1.19.71 5.81 1.28 5.98 1.54.36.55-1.09 2.24-.86 2.86.17.44 5.95 4.5 5.85 7.12-4.41.31-4.78-4.52-6.43-6.04-1.11-1.01-4.14-1.81-5.93-3.09-1.45-1.03-2.15-3.3-3.15-3.85-2.05-1.15-1.08 1.45-1.12 1.87-.37 3.55-3.35 11.07 1.62 11.11 1.83-1.39-.84-8.2 2-8.99.91 4.73-2.82 10.96 2 13.99 1.62-1.32-1.21-8.82 2-9.99-1.57 6.13 1.46 8.61 3.01 12.99-1.14-.11-1.96-.67-2.99-1 .75 3.26.42 6.74.99 10-4.28.67-.15 2-2.99 3.99-.47-3.31 1.82-9.87-3-9.99l.2 8.29 14.79 18.7c2.12-5.7-6.74-10.31-7.78-13.71-.46-1.52-.83-5.16-1.21-7.29.61-.1 1.33.16 1.97-.01.03-3.75 1.3-5.37.03-8.99.65.06 1.34-.03 1.99 0l.99-7 1.05 9.43c-3.56 1.12-1.1 1.91-1.24 4.03-.23 3.33-.64 6.68-.76 10.03-.08 2.05.86 2.06 2.46 1.51.59-.21.88-8.92-1.5-10h3.01c-.81-4.58 1.49-9.21 2-14l2.99 5.99c-.66-.02-1.33 0-1.99 0-1.31 5.59 2.74 6.98 4.49 11.98 4.74-4.56-3.77-6.29-2.5-11.98.79.02 1.81.93 2.98-.01-.04 1.64-.14 4.13 1.53 5 2.34 1.22 1.47-4.29 3.47-3.99 1.11 2.37-2.03 5.05-1.83 6.32.06.39 3.95 6.49 4.35 6.67.46-.93.94-1.31 1.5-2-.29 1.34.11 3.4-.26 5.21-.54 2.68-3.08 7.84-2.68 10.16.05.28 3.31 2.61 3.92 4.15 1.03 2.59-2.82.06-2.99 2 3.2 3.39-.8 9.39 4 9.47l3.02-26.99 2 7.53-4.01 24.46c6.32-2.15 4.19-9.13 4-13.99l3.98 3.99 9.01-21.99c.1 1.76.09 3.51-.23 5.25-.97 5.28-4.98 20.34-6.97 25.07-.57 1.35-2.23 1.26-2.72 2.5-.59 1.49-3.5 10.79-3.06 11.17 3.75.95 3.59-2.74 5.56-4.96 1.12-1.26 2.67-1.7 3.47-2.77 4.06-5.44 7.93-13.75 9.99-20.25l1.48 3.99c2.43-2.05 2.7-5 2.51-7.99 1.42-.53.84 4 2.97 1.99.62-.58 1.41-6.64 4.01-7l-17.61 34.88-15.37 22.12c6.02-1.14 7.96-7.15 10.99-10.5 5.14-5.68 9.95-10.06 14.41-16.59.8-1.17 6.92-12.81 7.58-11.91l1 3.99 3-5.99c-1.79 13.49-13.46 23.17-17 35.99l-2.99-3.48c4.56-5.29 8.41-11.11 11.79-17.22.49-.88 2.21-2.5.72-3.28-6.35 9.9-13.59 18.76-22.5 26.5l5-.49-1.99 5.99c.89 1.49 14.33-9.11 15.63-10.35 1.8-1.72 3.21-5.3 5.35-6.64-1.83 12.07-16.44 17.99-14.98 30.99 5.71.32 10.98-2.56 16.52-2.98 1.11-.08 3.72-.75 3.47.97-5.73 1.29-11.46 2.22-17.25 3.25-1.2.21-2.33 1.35-3.52 1.52-2.57.35-9.33-2.64-8.22 2.73.55 2.67 4.54-1.82 5.98 1.51l2.01-2.99-.5 1.99 5.5 1.5-6.01.51c-1.71 1.25 7.45 2.88 8.52 2.97 10.11.9 19.58-.74 29.48-1.97-1.12 2.32-6.17 2.76-8.52 2.97-8.7.77-19.37.07-28.03-.73-1.7.3-2.22 4.89-.87 5.86 2.5 1.8 26.47 2.19 30.79 1.77 15.17-1.46 29.21-8.6 43.56-12.94l-7.95-27.95c-1.67-.05-2.2-.53-1.96 1.45.8 6.55 4.89 15.25 5.98 22.04l-3.05-3.95-14.97-51.53v22.5c0 .16-.98 2.92-1.99 2.49l-1.02-44.48c.04-3.35-1.97-6.32-2.74-9.26-.66-2.5.65-8.77-3.24-8.25l-1 5.99-2-6-2 7c2.08-13.13 7.05-23.79 6-37.5-.08-1.01-1.67-10.39-1.9-11.02-3.4-9.43-28.79-19.26-34.18-28.41l-1.96.4c-5.69 3.2-1.32 6.57-1.33 8.03 0 3.69-.88 2.2.12 8.24 1.96 11.88 4.16 24.25 3.22 36.25l-2.98-25.51-2-1.48c-1 8.2-1.01 17.31-2.11 25.39-.26 1.89-1 6.65-2.89 7.6l2-28.48-2-.51c-4.8 14.37-7.29 33.96-17.02 46 1.24-5.61 3.33-8.51 5.03-13.47 2.21-6.43 2.57-12.85 3.73-19.27 1.29-7.17 2.44-14.2 4.24-21.25-2.85-.52-1.64.7-2.25 2.2-5.13 12.59-12.19 24.07-17.51 36.55l-1.18-.17 15.96-35.08c-1.13-4.64-2.34.59-3.17 1.81-2.01 2.95-3.9 6.18-6.02 9.02-.39.52-2.05 3.37-2.84 2.16 1.96-3.68 3.76-8.83 7.02-11.07l-1.02-5.42-2.98-.48c4.72-6.15 3.84-13.65 4.04-20.96l5.96-22.55c1.74-.25 1.04 2.33.89 3.38-1.36 9.58-6.42 19.38-5.89 29.6l5.48-3.99c1.37-1.95 2.97-7.56 3.52-10v6c2.24-.24 1.4-2.94 2.15-3.82.17-.2 1.67.81 2.34-.1 1.9-2.56 2.64-10.76 2.5-14.08-2.86-.47-1.66.6-2.13 2.31-.9 3.25-1.06 6.34-.87 9.69h-3.99l.04.05zm-101-47.99c-.81-.74-6.63 4.48-7.62 5.38s-7.45 6.62-6.37 7.61c2.05.36 2.65-.22 4.01-1.48 3.03-2.8 6.61-8.49 9.98-11.51zm16.99 6.98c-1.05-1.21-5.23 4.7-6.79 5.68-3.65 2.28-8.75 3.84-12.86 5.22-1.55.52-2.86-.88-2.34 2.1 7.39 2.24 13.29-5.94 18.51-7.98 3.76-1.47-1.56 4.89-.51 5.98 2.29.21 2.89-2.29 5.44-2.05s2.98 3.39 5.55 3.05c-1.39-4.77-8.06-5.8-7-12zm-43.99 11c.64-.6-2.88-8.89-4.5-8.97-2.88-.15.23 11 4.5 8.97zm84-3.98c-5.63 1.87-9.41-3.76-13.56 1.94-3.55 4.87-1.38 10.49-2.43 16.05l4.98-5c-.18 1.09-1.21 9.16 1.5 7.99.69-.3 11.13-8.83 11.57-9.44 1.02-1.41.79-3.47 1.52-4.48 1.97-2.73 5.89-4.25 5.42-8.07-2.6-.62-1.76.82-2.59 1.91-1.2 1.58-2.77 3.15-3.42 5.06l-1.97-1.46 3.99-4.5-6.49 4 1.49-4zm-97.01 4c-13.68 4.64-18.85 18.46-16.98 31.99l1.44-9.04 4.35-10.65zm-13.99 7-4.82 5.68c-3.84 7.22-6.95 16.55-2.67 24.31.35-10.93 2.43-20.31 7.49-29.99zm9.99 3c-2.12-.47-3.35 2.59-4.39 4.09-1.1 1.58-3.03 4.64-3.66 6.35-.77 2.12-4.13 15.37-4.02 17.03.36 5.45 6.5 15.81 8.75 21.34 1.6 3.93.92 11.48 6.32 12.17 1.04-8.7 3.5-16.44 0-24.99 2.62-2.29 5.33 5.94 5.77 7.72.7 2.82-.98 7.1 2.21 8.28 2.64-13.44-4.25-25.27-7.01-38l-2 .51 6.01 21.48c-2.67 3.07-5.85-11.82-6.01-12.99-3.41 1.96 2.23 9.06-.97 10.99-.94-3.91-3.27-7.41-4.16-11.34-1.74-7.7.61-15.39 3.14-22.65h.02zm87 18c-.9-.91-13.26 8.55-10.99 10.99 3.33 1.1 11.92-10.05 10.99-10.99zm-5.99 27.99c2.26-6.7 5.89-12.14 6.99-18.99-2.08-.46-2.27 1.08-3.22 2.27-4.67 5.86-10.5 15.26-4.79 21.72-.98-2.61.75-4.22 1.01-5 .58 3.89-1.49 7.63-1.02 11.5.23 1.85-.27 1.64 2.02 1.51-.19-3.89 1.54-7.57 1.01-11.51-.24-1.82.34-1.63-2.01-1.49h.01zm-95.99 34c14.37-8.04 15.14-19.62 8.01-33.52l-8.01-16.48c2.44 15.61 12.36 24.05 5.18 40.69-1.51 3.5-3.94 5.93-5.18 9.31zm26.99-15.01c2.29.48 2.21-1.12 3.04-2.45 4.66-7.42 4.03-18.98-.06-26.54-3.06 1.04-.13 4.35.06 7.45.37 5.95-.86 16.17-3.05 21.54zm136.99-23.98c-3.01-.49-1.61.74-2.02 2.42-1.62 6.55-3.22 13.99-3.96 20.57 1.83-.31 1.68-2.05 2.13-3.36 2.1-6.16 3.81-13.09 3.86-19.63zm-62.98 20.98c-.66-3.62 1.77-9.79-2-11.99.6 3.16-1.16 6.24-.83 9.23.51 4.68 4.42 11.34 8.81 12.76l1-13h-2.99v10.01c-2.8-.91-2.07-7.47-1.72-10.23.2-1.59 3.63-6.96.24-6.76l-2.5 9.99h-.01zm-86.36 16.65c6.72-6.69 10.53-17.37 8.34-26.64-1.27-.28-1.69 1.97-1.79 2.77-.53 4.45.1 11.44-2.35 15.57-3.79 6.4-15.49 11.15-17.84 17.16-.5 1.27.19 1.85 1.47 1.47 2.99-4.42 8.79-6.99 12.16-10.35v.02zm86.33-9.63-2 .51c1.42 4.26 3.46 8.42 5.71 12.32.72 1.24-.58 2.76 2.3 2.16-.61-6.19-2.63-9.98-6.01-14.99zm-82.97 19.99c9.38-3.74 12.86-9.26 14.98-19zm-25 3c1.72 2 8.73-9.18 7.98-9.99-4.27 2.42-9.25 3.98-7.98 9.99zm121.98 2.99c1.07-5.87-1.31-8.97-5.98-11.99l1.26 5.23 4.73 6.76zm-112.99-1.98c-5.39.95-6.2 8.67-5.99 12.99 3 .53 1.57-.82 2.1-2.34 1.27-3.63 2.97-6.95 3.89-10.65zm132.74 7.78c1.12-2.42-3.02-9.59-3.74-5.27-.19 1.16.98 3.03.78 4.73-.43 3.62-3.34 6.55.73 9.74.53-2.38.16-6.1.75-8.48.18-.71 1.36-.46 1.48-.73zm-139.74-5.8c-3.76-1.21-3.81 3.16-4.03 6.46-.36 5.27-.23 11.42 3.54 15.54.35-7.33-.22-14.51.49-22zm144.99 20.01c-.05-3.57 1.35-9.58-3.98-9.99-.47.52 1.84 9.59 3.98 9.99zm-5 3c-1.8-.1-2.1-.48-2.02 1.51.15 3.61 3.96 8.56 7.02 10.49.76-4.87-5.22-6.29-5-12zm6.99 20c-3.24-3.24-2.19 9.76 1.5 8.99 3.33-2.83-1.36-5.83-1.5-8.99zm25.01 36.01-9.72 5.33-2.27 4.15 3.5-2.49 1.98 3.98c5.53-1.3 5.88-6.02 6.51-10.97zm-18 2c-5.18-.32-6.57 5.32-7.99 8.99 4.41-1.72 9.37-3.33 7.99-8.99zm6 16c-3.84-.52-5.53 2.57-4.99 5.99l3.84-.14zm84.01 12.99c.95-15.07-3.34-5.97-12-4.99-.29 2.41-.03 1.6 1.39 2.1 1.49.53 10.08 3.42 10.61 2.9zm-.01 12.99c-3.14-6.56 1.15-7.79-5.49-12-5.07-3.22-11.76-5.06-16.5-.46 2.49 7.73 12.05 2.46 16.94 7.03 1.7 1.59 1.5 5.84 5.06 5.43zm-98-11.98c-2.37-2.69-6.58 13.54-6.76 14.73-1.11 7.74-2.04 22.6 7.25 25.27-1.59-13.08 1.2-25.75 3.52-38.5l-1.99-.5-3.01 5.99.98-6.99zm9.01 50.99v-31.5c0-.31 1.89-5.46 2.99-5.5-.34 8.22-.06 18.47 3.51 25.99.82-3.28.28-6.45 1.21-9.83.49-1.77-.32-2.6 2.28-2.16-1.11 7.43-4.15 14.9.02 21.99l2-.51c-.07-2.53-1.51-4.63-1.94-7.07-.17-1-.79-3.68.91-3.41 2.17 5.76 1.87 16.3 10.01 15.99.79-.78-2.83-7.31 0-7.99-.13 9.62 6.6 11.16 12.92 15.58 3.13 2.19 5.82 4.96 9.04 7.02l4.04-2.61c.5 2-2.03 2.74-2.03 4.5s2.52 2.5 2.03 4.5c-6.62-3.16-7.2 3.92-11.99 6.51 3.62.68 7.47.51 6.99 5.49-7.33-3.41-10.6-3.67-17.08 1.6l2.19 6.29c.73.65 5.07-.53 6.35-.94 7.08-2.28 18.74-10.79 25.32-14.9 4.34-2.72 9.06-4.94 13.32-7.78l2.82-9.8c-2.1-5.77-9.92-15.82-8.89-21.89.38-2.29 3.89-7.28 1.85-10.44-1.42-2.2-43.44-12.82-47.86-20.64l45.99 17.5-8.23-19.77-38.77-.23.05-3.53-6.05-.46v14.5c0 1.52-2.85 5.95-2.01 8.49-2.91-.86.01-6.55.01-7.49v-15.5l-5.04-.58-2.95 8.58c-1.03-3.6 3.5-9.73-2.01-9.99-1.48 5.85.09 12.22-2.68 17.64l-1.34 26.35c-1.74.23-.94-2.27-.99-3.48-.52-12.92.87-27.02 4-39.5l-3.02.66c-3.61 6.36-4.97 31.27-3.89 38.74.31 2.18 4.29 12.15 6.91 9.59h.01zm102 24c-.05-2.75.27-5.52-.24-8.26-1.52-8.3-6.39-16.47-8.48-24.51-2.41-9.27.36-11.61-7.81-19.19-2.41-2.24-6.69-3.88-7.99-4.97-3.25-2.74-6.86-10.8-11.96-11.09-1.57-.09-1.74-.15-1.5 1.51.75 2.55 7.96 8.27 10.48 10.52 3.3 2.95 3.66 3.55 6.5 6.5s6.06 5.94 9 9c-2.81 3.61-17.33-4.18-17.99-3.5-.13 5.55 3.28 10.71 2.5 15.99-4.14-3.79-.47-11.14-5.49-13.99-.82 7.06 2.37 20.97 6.94 26.34.81.95 2.36.22 3.07 1.34 2.26 3.58 2.85 11.01 6.49 14.32h16.5-.02zm-27.99-66c-1.14 1.05 3.63 5.18 4.52 5.97 2.17 1.91 6.65 5.5 8.98 7.03 3.58 2.34 1.6-3.48.89-4.89-3.32-6.55-7.43-7.98-14.39-8.1zm-2.44 9.42c-.88-.67-3.72-3.22-4.57-2.41l3.92 12.57 15.08 5.41c.43-1.88-1.06-2.37-1.99-3.5-2.78-3.38-8.98-9.47-12.43-12.07zm-66.58 25.58-2.49-10.99c-2.76 2.19-1.44 10.91 2.49 10.99zm2.01 13.99c-2.3-3.76-.42-10.28-3.99-12.99-.75 4.1-.15 8.45.9 12.41zm6 2.01c-.06-.09-1.34.26-1.72-.22-1.25-1.58.17-9.68-4.27-10.78.44 4.62.4 13.51 5.98 14.99-.19-1 .3-3.55 0-4 .87 3.29 2.99 6.96 6.99 6.99l-4.4-11.09-3.59-.9c1.24 1.62.63 3.6 1 4.99v.02zm7.98-.99c-4.37-3.64 1.05 11.36 5.01 9.99.39-.4-4.59-9.63-5.01-9.99zm10.03 7c-.77.79 3.91 8 4.97 8.56 1.74.92 4-1.65 4-2.07 0-.55-8.35-7.14-8.98-6.5h.01zm-31.01 22.98c.69-.65-4.61-17.15-5.23-18.26-.84-1.5-1.74-3.05-3.76-2.73 2.31 6.58 3.05 13.12 3.43 20.06zm27-11c1.85-2.12-7.39-6.94-9.06-7.46-1.39-.43-2.33-.55-2.94.97 4.15.97 7.91 15.05 9.6 15.43 10.31-2.6 8.4-11.04-1.11-5.96l-1.49-1.97 5-1.02zm45-2.98-10.34 5.15-17.65 11.84 21.93-6.56 6.07-10.42zm27 1c-3.63 1.45-9.8-.45-12 2.98 3.97 1.51 9.83 1.06 12-2.98zm-106 223.99c1.17-6.45 26.71-31.06 32.99-36.51 15-13.04 32.56-26.33 48.88-38.12 1.89-1.36 6.22-2.88 7.13-3.87 4.97-5.38.71-21.9 10.99-20.01-3.39 1.8-2.37 4.96-3.55 7.45-.86 1.82-4.92 4.19-2.93 7.07 7.98-5.1 16.74-11.24 17.46-21.62.58-8.35-.56-19.46.11-28.72 1.92-26.51 1.9-41.55-.18-68.17-.18-2.33 2.28-7.67-1.42-8.49s-.97 5.08-.84 6.65c1.45 18.04 3.53 37.2 2.4 55.89-.48 7.99-3.14 15.57-4.05 23.45-1.9 0-.99-4.19-.86-5.37.62-5.62 3.46-12.48 3.88-18.12 1.23-16.27-.82-35.36-2.93-51.08-.42-3.14.51-6.4-.52-9.48-5.52-3.2-10.92 1.64-16.56 1.06l2.99-3.98-4.09-.48c-.55-3.13-.54-7.22-4.9-7.53l-3.6 13.02-6.43 4.46c-6.01 10.2-9.85 21.72-14.21 32.8-.61 1.56-.89 3.05-.79 4.72l-.56-5.07 9.57-23.91c-2.37-2.22-13.11 14.14-13.01 16.98-1.83.24-.88-2.11-.53-3.03 3.34-8.9 9.59-12.98 15.57-19.43 1.02-1.1 2.34-1.74 1.97-3.52l-8.64 6.35c-2.95 3.7-9.82 13.91-13.87 15.64-1.18.51-1.99-.3-1.48-1.48.32-.74 12.71-9.95 10.99-11.5-4.54 1.38-8.39 4.53-11.5 7.99l1.5-5.99-4.59 1.96c-.7.98 1.09 6.05 1.56 7.58 6.01 19.2 15.89 39.69 19.82 59.21.43 2.15-1.57 5.64-.77 8.25l3.98-3.99c.08 6.1-8.21 7.91-7.98 13.99l7.5-4.99c1.99 2.99-6.16 7.31-8.96 9.04-35.29 21.8-37.19 35.92-56.53 69.47-3.49 6.05-15.38 19.57-16.83 24.22-.22.71-.48 1.43-.05 2.14 5.68 2.37 7.43 9.49 13.87 5.13-.27 1.47.16 3.43 0 5.01 6.08 1.77 7.94-8.02 10.44-10.12.93-.79 2.46.21 4.06-.79 3.33-2.08 11.5-11.59 15.01-15.08 12.43-12.35 25.19-25.5 38.48-37.52 1.33-1.2 12.81-8.54 11-10.49l-27.5 22.99-.98-2.98c-9.44 8.65-20.01 16.41-29.13 25.4-6.19 6.1-15.29 19.46-21.38 23.59v-.07zm-20-45c.21-.29.22-1.53.94-2.51 2.69-3.65 7.51-7.46 10.06-11.48-3.64-.11-6.65 3.23-8.5 5.99l-1.01-2.06c-1.56 1.08-15.5 6.11-15.5 3.55l3.52-6.48c1.54 1.01-2.53 5.68.89 4.9 11.31-2.55 35.25-17.48 42.15-26.86 2.22-3.01 2.94-7.34 5.96-10.04 1.75 1.86-3.49 7.08-3.49 7.5l1.96 1.5 3.02-2.5c-1.43 2.56-3.98 4.07-5.82 6.18-.63.72-2.24 2.84.31 2.32 4.68-4.87 9.83-8.35 12.02-14.99l.99 1.99c1.92-2.95 5.98-4.63 8.05-6.94 1.51-1.68 2.28-4.88 2.52-5.04.43-.3 2.24 1.05 3.89.5.56-.19 8.94-5.69 9.06-6.22.32-1.4.57-5.18.74-7.05.14-1.47 1.07-2.6-1.24-2.23-3.99 3.7-4.51 9.98-8.5 12.99-.52-2 2.07-2.74 2.01-4.5-.04-1.25-1.63-2.27-1.67-3.01-.04-.79 3.5-5.23 2.66-7.49 2.66.45-1.08 6.03 2.98 4.99l2.02-5.55-1.51-2.44-1.48 1.99-.6-2.94-4.4-4.06c-1.76 8.31-5.66 17.31-9.69 24.85-.71 1.33.52 2.71-2.31 2.14 3.87-12.52 15.36-25.5 10.74-39.23-.83-2.45-6.57-10.8-6.72-11.46-.47-2.16.24-5 0-7.3l6.5 14.99 2.47-.49-13.99-43.5c-1.77-.18-1.07 3.4-.97 4.47.47 5.24 2.13 10.36 2.97 15.52l-2.98-3c-.82 2.16 3.01 6.77-1 5.99.79-6.78-1.72-13.92-1.54-20.53.06-2.19 4.4-6.9-1.46-7.46.02 3.1.15 6.14-.3 9.23-.23 1.59-.19 4.5-2.7 3.76l1.99-12.99-1.98 3.39-2 .12 2.86-9.05-11.39-5.45-1.06 3.01c2.53 18.68 10.43 39.13 12.56 57.47.91 7.82.52 14.78-2.99 21.97 1.47 2.34 3.62 1 5.73.24l4.26-12.71c2.13 5.03-1.95 8.04-1.99 12.99h2.28l.73 1.99c-5.38-.5-4.56 6.22-6.02 10.01l-1.97-.48 2.99-8.5c-5.51-1.87-7.8 2.28-11.04 3.45-8.42 3.04-18.71 8.64-26.34 14.71-12.64 10.06-17.61 23.04-25.82 36.14-6.9 11.01-14.12 21.5-22.77 31.24l-.03 1.43 9.51 7.08 9.48-10.07c-.8 4.43-6.53 7.77-7.98 11.52-.5 1.28.19 1.85 1.47 1.47l15.5-16.99c-1.5 5.83-11.06 12.59-12.98 17.52-.47 1.21.26 1.98 1.47 1.47 4.5-1.87 16.93-25.24 24.51-28.99-1.19 1.59-2.45 4.42-4.03 6.47-1.67 2.17-4.18 3.92-5.96 6.04.86 4.49 2.24-.23 2.97-.99 10.12-10.67 25.57-19.05 35.92-30.13 1.97-2.1 4.76-5.42 5.1-8.39-5.59 4.89-10.78 10.22-16.49 15-5.12 4.28-11.99 9.27-17.5 12zm74-154.99c-2-.34-12.93 3.57-12.98 4.49-.16 3.03 9-1.52 9.96-2.01 1.15-.59 2.76-.93 3.01-2.48zm-20.01 14.99c-4.16-3.6.6 8.08.74 8.71.39 1.8-.12 3.94.77 5.29 4.26-4.71-.75-9.24-1.51-13.99zm-23.99 112.01c-5.04 1.81-10.6 7.39-14 11.49-.93 1.13-2.42 1.62-1.99 3.5 1.88.43 2.37-1.06 3.5-1.99 4.53-3.76 8.51-8.68 12.5-12.99h-.01zm-55.02 19.99 10.01-19c-2.85 3.44-11.31 13.68-12.02 17.49-.35 1.91.51 1.65 2.01 1.51zm50.02.01-48.88 42.17c2.01 5.91-.26 2.6-2.61 4.81-.23.22-3.14 5.2-3.17 5.52-.21 3.07 5.8 5.03-1.35 10.49 1.11.98 9.28-6.48 11.7-6.77 1.61-.19 2.58 1.42 3.96 1.57 4.1.46 10.27-9.75 12.94-12.7.98-1.08 2.48-1.56 3.39-2.61 11.31-13.03 19.1-25.75 24-42.49h.02zm-56 38c-3.65 1.04-11.62-13.22-14.9-10.93l-8.13 11.41c7.84 4.38-.23 10.59 6.36 17.17 9.98 9.98 11.03-2.67 14.3-7.42 1.71-2.48 5.53-2.5 4.35-7.24l-8.98 9 6.99-11.99zm-17.99 32.99c-1.14-2.11 1.76-4.94 1.75-5.52-.04-1.77-7.04-5.6-8.02-7.71-2.58-5.53 2.28-13.31-4.76-17.33l-1.29-.31c-6.8 3.87-13.68 5.75-18.67 12.37 12.97 6.87 18.09 19.04 21.99 32.5l2.22-1.31 4.76-9.69c.47 7.18-6.74 9.76-1.98 16.99l5.76-9.72-.27-2.27-4.49 5c1.26-3.64 3.61-8.04 6.98-10l-.99 3.99c2.64 1.98 11.67-11.88 12.02-14.49.43-3.17-6.59.36-6.83.67-.62.83-.19 5.21-1.2 6.81l-1.15-4.82-2.73-1.12-3.09 5.94v.02zm42.09 2.15c.92-.74 15.12 8.76 18.96 3.4.99-1.37.78-3.3 1.54-4.45 1.27-1.91 6.75-7.75 6.33-9.5-1.69-2.39-4.19-1.77-6.63-3.32-3.81-2.42-8.07-6.5-11.8-9.27-6.02 7.91-16.39 14.44-8.99 24.98l.6-1.85h-.01zm-57.11 12.84c-.77-3.69-1.32-9.64-2.54-12.94-.91-2.44-14.02-21.47-16.4-20.02l-5.03 5.47c10.28 6.16 14.01 14.6 20.05 23.96.94 1.46 1.82 4.09 3.93 3.53zm77.76 1.25c-2.81-2.53-6.01-.22-8.25-.44-7.25-.72-16.19-2.84-19.72-10.08-2.26-4.64-.6-9.82-3.28-13.69-5.41 2.34-7.5 7-11.11 10.87-1.3 1.39-10.86 9.04-9.39 11.09 4.29.16 17.5 17.04 19.99 15.01l-5.5-26.99c5.13 6.48 5.25 16.81 7.56 24.44 2.69 8.88 12.73 11.04 18.37 17.63 2.7 3.15 5.07 9.42 8.64 12.36 4.1 3.37 16.1 6.15 21.44 6.55 2.76.2 10.4-.99 10.94-.86 1.48.37.96 4.62 4.58 2.42 2.05-1.25 2.45-5.27 2.97-7.53-6.9-.71-13.62-4.46-19.53-7.99l-.48 2.98c-5.46 1.72-5.19-7.4-6.01-7.99s-5.36 2.3-5.98-.52c-.48-2.2 4.53-2.07 2.99-5.48l-7.99 1.99c1.05-3.89 6.56-4.93 5.99-8.99-.34-.39-9.06 3.25-8.98-.49 1.69-4.05 5.81-2.21 5.98-2.51 2.21-4.06-3.47-2.77-6.23-3.27s-7.43-1.03-5.25-4.74c2.33 1.16 12.64.21 8.24-3.75v-.02zm-73.76-1.24c-2.46-.41-2.21.46-2.02 2.52s3.81 11.1 5.13 12.89c.47.63 6.04 6.46 6.89 5.59-3.54-6.88-9-13.07-10.01-20.99zm60 34c1.03-1.15-6.32-8.07-7.49-9-8.59-6.84-17.58-11.59-26.4-19.6-1.99-1.81-4.07-7.73-7.61-4.4-3.23 3.03 1.47 8.25 3.86 10.65 9.94 9.97 19.3 11.62 30.65 17 1 .47 6.69 5.68 6.98 5.35zm-43.32-16.65c-1.26-.88-5.74-2.66-4.66.65 1.39-.92 7.13 4.43 7.52 5.04.54.85-.35 2.31.04 2.99.26.46 7.11 6.4 7.93 6.98 2.75 1.94 12.42 6.93 11.12-.06-.32-1.71-7.94-4.97-9.1-4.99-.7-.01-.03 2.77-1.99 2.03-1.95-.96-.31-2.88-1-3.95-.36-.55-9.01-8.11-9.85-8.7zm48.31 20.66-1.99.5c3.42 13.14 22.34 16.55 34.01 14.48l-21.68-4.8c-4.75-1.67-8.39-5.5-10.33-10.18z"/><path d="m495.33 274.06c.67 1.15 1.81 2.06 1.95 3.52l1.04 20.47-3-21.99-2.83 1.6.83 4.39-2.98-1c.49 4.62-.45 12.85 5.05 13.59l.96 7.4 1.98-1.99v8.99c-3.14.54-1.51-.96-1.97-2.47-.95-3.09-1.56-6.89-3.52-9.52l-1.49 10.49-1.99.49c-3.76-8.13-2.18-17.18-3.92-25.59-1.52-1.86-4.34-1.06-6.12-1.88-7.98-3.66-40.63-27.78-45.52-27.45-1.44.1-2.33 1.72-3.79 1.72-2.9 0-11.25-5.52-15.67-6.4-2.47-.49-5.78 1.75-5.54-1.39l1.52-3c-8.55 0-12.54 7.78-21.5 7.05-2.31-.19-4.39-2.21-6.21-1.36-2.62 1.22-19.04 23.93-22.78 28.31-8.22 9.64-11.29 12.63-16.43 24.77-9.26 21.86-11.12 37.88-15.22 60.58-3.58 19.81-7.71 34.8-17.47 52.53-2.44 4.42-8.88 11.97-10.38 15.62-.19.46-.26 1.64.48 1.48 7.39-6.54 12.45-15.87 18.99-23.01 1.19-1.3 1.74-1.66 1.51.5-8.18 10.83-16.87 21.93-26.57 31.48-.89.88-2.42.83-3.04 1.43-8.91 8.58-17.77 19.69-30.37 22.6l14-10.01-1.5-1.96c-5.71 4.65-11.35 7.62-18.49 9.49-25.32 6.63-42.12-.41-56.03-21.98l-8.96-16.52 5.05 35.43c3.43 12.74 16.9 17.18 25.93 25.06-1.64 1.13-4.47-1.26-5.91-2.09-4.36-2.5-9.02-5.85-12.6-9.41-1.37-.3-1.89.06-1.47 1.47.56 1.9 7.62 9.15 9.49 10.51 6.53 4.77 15.73 6.06 22.49 10.51-.68 1.27-2.86.24-3.9-.1-4.12-1.35-10-3.32-13.77-5.23-5.61-2.84-8.71-7.84-14.32-10.17l10.85 30.64c15.07 31.06 34.27 59.89 60.14 82.86.16.74-1.04.68-1.48.49-.49-.22-6.99-5.98-8.04-6.97-27.24-25.58-46.76-60.97-61.18-94.82-1.97-4.63-3.58-12.43-5.89-17.11-3.31-6.72-12.47-14.49-15.42-22.09-1.91-.22-.64 1.95-.51 3.01 1.29 10.18 5.72 19.56 7.44 29.57.17 1 .79 3.68-.91 3.41l-14-51c1.16.42 2.2 2.06 1.95-.44-1.99-20.28-6.24-33.15-3.88-54.97.55-5.08 2.77-11.29 2.93-16.58 1.67-.26 1.09 2.44 1.03 3.53-.73 12.47-4.02 24.37-3.08 37 1.65 22.03 4.54 35.06 16.56 53.48.77 1.17-.24 2.58 2.47 1.98.05-4.74-4.55-9.82-5.72-13.77-1.24-4.19-.72-9.45-2.29-13.71 1.14-1.37 1.74 1.43 1.92 2.08 1.18 4.36 1.92 9.03 3.1 13.4 3.94-1.58.64-4.98.23-7.75-.53-3.58-1.71-9.01-1.84-12.26-.06-1.53-.41-2.49 1.58-2.99l4.27 26.24 2.73 3.76c-5.97-29.76-10.73-60.75-2.98-90.99 1.71-.26 1.07 2.38.98 3.48-.91 11.25-2.83 22.68-3.01 34-.03 2 .12 1.61 2.02 1.52 0-1.75-.21-3.54.23-5.27 4.3-16.71 7.28-29.3 16.97-44.03 32.62-49.63 91.21-45.37 129.8-86.2 6.74-11.05 15.12-21.45 23.97-31-2.21-1.93-4.05-4.43-3.55-7.55.81-4.98 4.62-3.84 6.05-5.98 1-1.5.5-4.15 2.05-5.95.36-.41 7.08-7.15 7.5-7.5 2.23-1.9 6.39-1.64 7.98-6.1l6.03 1.16c4.2-11.24 11.66-9.6 18.97-2.07 5.53 5.69 2.24 9.15 3.44 11.48 2.77 5.39 9.27 2.58 13.62 3.44 1.33.26 15.56 5.02 16.29 5.47 1.4.88 1.03 3.31 1.85 3.9 2.83 2.01 25.52 5.99 31.01 7.49 2.57.7 5.75 1.79 8.35 2.65 1.81.6 4.82 4.38 4.44.08l-14.99-6.03c-.05-2.07 3.86-.64 4.82-.31 6.32 2.18 32.88 16.18 37.39 20.32 5.14 4.72 3.03 6.17 4.42 10.78.96 3.19 4.91 8.23 5.35 11.77.06.49-2.01 0-2.1 1.91-.21 4.6 2.48 11.52 3.02 16.14.86 7.43 2.02 17.61 2.18 24.9.04 1.97.32 4.8-2.07 5.5-.3-7.12-.21-15.42-1.09-22.42-.24-1.93-1.44-3.6-1.69-5.31-1.29-8.82-4.42-35.48-9.66-41.34-2.82-3.16-12.51-4.47-16.85-6.15-7.03-2.71-14.55-6.93-21.73-9.27-9.6-3.13-21.01-5.23-30.94-7.45-.52.46-3.22 11.31-4.11 13.21-.49 1.04-3.4.52-1.47 2.76 5.27.85 11.28 6.01 15.51 7.38 1.03.33 2.84-.65 3.01-.42.23.31-.28 2.22.05 3.22 1.39 4.2 19.83 9.9 23.62 13.67 4.9-3.94 3.54 2.52 8.81 3.13l1.02-4 1.51 5 2-4.01c1.02.25 1.88.97 2.99 1-.14-.25.27-1.2-.21-1.75-2.43-2.78-11.72-2.77-14.79-3.9-4.57-1.69-16.16-8.95-21.02-11.86-1.27-.76-2.53.2-1.97-2.48 13.55 6.43 27.36 12.39 42 16-.46 3.61-.66 4.07-4 3.99v.04zm-94.17-61.16c.95-2.18-3.84-6.49-5.4-7.8-9.22 5.39.09 8.1-.42 14.97 2.79.44 1.51-.44 1.99-1.51.93-2.09.78-5.05 3.84-5.66zm-8.84 6.15c.09-4.45-4.16-9.72-8.99-8.99-1.83 1.78 7.17 10.82 8.99 8.99zm-5 6.01c2.03-5.68-5.57-10.96-10.98-9.99-2.89 2.8 9.35 8.38 10.98 9.99zm-14.33-4.78c-1.68.14-3.84 2.17-4.21 3.76-.73 3.12 4.15.4 6.83 1.21 1.42.43 8.58 9.68 9.71 5.3 1.05-4.08-9.49-10.52-12.33-10.27zm1.35 8.79c-.41.43 3.52 10.14 4.44 11.05.99.98 11.86 4.87 13.05 4.88 2.34 0 7.19-3.83 10.44-4.49s8.65.25 10.66-1.34c4.32-9.34 5.7-15.1-5.93-17.9l-5.67 2.81c-.53 3.47 4.13 2.28 5 4.98-8.8-1.67-14.45 11.39-22.98 7.49-1.46-.67-7.58-8.95-9.01-7.47zm58 13.99c2.54-1.77 7.47-10.47 5.57-13.06l-16.58-4.93 1 15c4.34.9.59-8.67 4.99-8l-2.99 13c2.89-2.03.97 1.16 3.48.98 2.81-2.1 3.53-5.63 3.53-8.99l1 5.99zm-61.01-12.99c-1.94-.65-11.88-.22-8.99 3.97 1.97 2.86 8.13-.97 8.99-3.97zm.99 5.99c-1.54-.37-1.6.24-2.42 1.06-4.52 4.51-7.2 10.1-10.54 15.19-1.45 2.21-4.49.64-1.78 5.99s4.81 2.14 5.21-2.1c.18-1.95-.8-4.09-.46-6.15h2.99c-.45 2.09-1.88 4.08.99 5 1.04-.74 2.61-7.13 3.24-8.31.93-1.74 3.66-1.55 2.78-4.69l3.99 2.99-4.01-8.99h.01zm-17.02 31.99c1.21-4.04 3-7.19-.47-10.97-1.56.78-1.04 2.83-1.75 3.72-1.13 1.43-4.18.16-3.78 2.77.37 2.43 3.51 5.05 6 4.48zm-17.96 27.01c4.49-3.32 6.69-9.69 8.84-14.71l-6.83-5.29c-1.72 3.97-7.42 7.57-11.12 10.39-16.05 12.2-33.09 23.56-53.1 27.9l-16.79 8.21c2.89 1.41 5.88-1.69 8.6-2.4 22.17-5.81 40.92.28 49.38 22.4 4.27 11.16 1.99 26.82-.23 38.75-.88 4.69-2.91 9.07-3.74 13.75 2.66.55 1.72-.68 2.48-1.97 4.96-8.4 5.88-31.39 7.76-42.28 2.04-11.83 4.56-21.45 7.92-33.08.53-1.84.94-3.74.83-5.67-2.04 1.73-3.76 6.28-4.67 8.82-1.17 3.24-3.16 13.95-4.54 15.95-.29.43-2.58 1.25-3.2 1.27-.85.03-1.32-3.72-2.16-4.96-1.54-2.25-10.59-10.17-13.17-12.05-.81-.59-14.6-7.23-13.25-9.02 16.94-6.76 31.01-18.76 46.65-27.89 4.77-.45 1.02 9.4.36 11.88zm-3.02-3-25.1 15.39-8.89 3.62c-.35 1.51.22 1.6 1.05 2.43 5.25 5.2 15.38 8.18 16.96 17.55 2.56 2.46 3.14-7.99 3.46-9.02 3.22-10.15 9.18-19.84 12.52-29.97zm-26.99 69c2.39 1.07 3.72 2.48 5.99 3 1.76-4.1-2.05-5.18-2.03-5.5.13-2.62 3.43-5.91 2.01-11.8-.17-.71-1.54-.52-1.92-1.42-.43-1.02.34-2.84-.56-4.31-.44-.72-2.11-.76-2.34-1.09-.2-.29.89-1.98.67-3.14-.47-2.48-5.62-7.44-7.9-8.27-2.02-.73-3.79.7-3.92.55-.34-.4.93-2.34-1.21-3.34-7.31-3.39-17.74-2.08-19.68 6.62l3.53 3.62 4.35-2.92-1.92 4.37c5.59 8.11 5.56-.62 10.93-2.36l-4.92 6.64c5.28 11.5 9.95-6.21 15.91-8.65 1.3 1.41-10.03 12.54-10.03 14.5 0 2.56 3.66 4.98 5.96 3.52-.51 4.22 2.66 3.21 3.79 4.26.24.22 3.2 5.4 3.29 5.72-1.49-.67-3.51-2.05-5.01-1.59-.32.17-4.31 5.22-4.5 5.66-.51 1.17.5 2.48.32 2.78-.58.97-8.7 4.98-6.36 9.14l3.97 2.08c1.43-2.02 2.09-3.9 4.58-5.07-.32 2.85-3.02 3.92-3.76 6.51l4.26 4.47c2.41-3.36 11.45-10.29 12.3-13.74 1.02-4.14-1.17-8.6-5.8-6.24.13-.76.17-3.37 0-4zm-29-35.99c-.64-.48-11.63 1.51-12.99 2.49-.22.16-3.79 3.42-3.89 3.67-.88 2.17 1.81-.05-1.5 3.89-4.63 5.51-7.32 7.56.85 11.93l11.06-14.07-.53-3.93c4.27 1.83 5.35-.27 7-4zm-29 130.99h-14.5c-15.31 0-29.98-14.08-34.45-28.55-8.35-27.05 8.06-61.76 26.43-81.46 3.92-4.2 8.98-7.93 13.41-11.59.42-.35 2.93-1.89 1.59-2.41-10.6 5.02-19.7 15.16-26.32 24.68-13.27 19.12-22.29 40.38-19.06 63.71 2.96 21.43 17.06 32.68 36.49 39.54l1.82-1.84c3.74 1.59 11.69.98 14.58-2.08zm9-122.99c-4.98-.36-14.23 4.85-4.67 6.9zm15.02 0-4.08 6.5 4.61 3.5c5.32-2.55 6.06-8.62-.53-10zm-30.02 10.99c-4.67-1.53-2.36.27-4.75 2.02-6.23 4.54-10.71 7.91-15.27 14.45-2.03 2.92-5.31 7.16-3.98 10.52h-3.46c-4.37 8.31-8.46 16.44-10.28 25.72-.25 1.29.58 2.59.42 3.64-.67 4.55-3.85 6.14-.67 11.64-.65-.06-1.34.03-1.99 0-1.1 17.17 7.59 35.76 25 40.59 26.07 7.23 61-19.23 70.51-42.59.53-1.29.24-3.5.53-3.97.06-.11 1.42.9 2.47.09 3.18-2.47 9.39-24.88 10.47-30.11-4.36 3.91-8.69 8.57-12.38 13.07-4.8 5.85-8.51 12.55-12.98 18.57-1.17 1.57-7.19 6.14-6.17 8.38l3.53 4.98-5.46-4-4.07 5.03-.02 1.96 4.56 5c-2.7.46-3.72-3.35-5.68-3.88-3.59-.96-4.28 4.58-5.71 6.5-1.31 1.76-5.25 4.7-5.46 7.06l2.86 4.32-4.98-1.98-3.01 3.99 2.53-6.02c-3.29-2.64-3.06-5.45-7.54-3.98.21-3.01-1.47-4.14-3.5-5.98-2.69 3.17-5.46 5.95-.98 8.98 2.71-1 1.45-2 4.49-3-.19 2.67-3.5 7.77-6 9 .28-3.81 2.23-4.72-2.5-7.97l-4.5 5.43c2.59 2.02 3.78 4.13 7 2.54-.12 1.63-.33 3.37-.5 5-1.83-1.47-3.69-4.42-5.82-5.29-1.98-.81-3.57.46-3.68.31-.43-.61.43-5.2-2.62-5.97l-5.38 3.95 2.92-5.36-5.44-4.63-7.48 7.99c2.77-6.87 10.62-7.14 1.46-13.98l-4.46 3.98 1.89-5.29-3.48-3.66-6.42 4.95 3.98-6.52c-.06-2.09-4.59-5.06-5.98-7.47 3.26.31 5.03 4.14 7.53 5.98l4.47-3.98-2.06 6.33 5.47 2.75 3.56-4.58c-1.55-1.34-2.89-3.37-4.46-4.58-1.26-.97-2.41.16-2.5.08-.13-.11-.33-1.96-1.41-3.04-4.79-4.77-4-.18-7.58 2.04l2.84-6.36-3.84-5.64c1.16 2.46 6.69 3.71 6.99 4 .15.15 0 2.31 1.43 4.05 3.65 4.49 5.28-.92 7.44-3.74l-2.87-4.31c2.36-.38 2.77 2.67 4.99 1.57 4.23-2.1 6.1-9.65-.81-9.38-2.41 1.54-3.61 7.06-4.18 7.81-.22.29-5.16 2.5-6 4-1.21-1.36 8.59-11.93 9.96-13.5-1.5-1.16-3.01-3.68-4.46-4.58-1.34-.84-2.43.19-2.49.08-1.7-3.08 2.66-5.66 4.99-7-.62 1.43-2.21 4.12-1.92 5.31l5.42 4.67 4.06-7.07c-3.25-4.91-2.86-5.62-7.56-2.91 4.91-11.41 17.17-21.03 24.52-31.01.54-1.74-3.17-3.16-3.52-4.99 2.73.89 4.76 3.45 7.08.57 2.11-2.62-.13-5.87-3.34-5.43-2.48.69-4.28 2.08-3.74 4.86h-.03zm37.5-4.97-5.43 5.61c2.84 6.85 6.41 4.09 8.78-1.31l-3.36-4.3zm-8.57 7.91.03-1.39-5.39-3.62c-3.11 4.85-7.54 6.37-1.08 11.03l6.43-6.02zm-19.3-2.88-2.16 1.95c-1.96 2.01 3.36 7.19 4.91 6.92l2.16-1.95c1.96-2.01-3.36-7.19-4.91-6.92zm37.37 5.94c-.11-.1.2-1.87-.52-2.93-3.88-5.71-6.16-.76-8.52 3.42l3.54 3.53 5.5-4.03-3.04 5.5 4.51 4.5c1.95-2.72 7.28-7.01 2.5-9.49-1.42-.74-3.81-.37-3.96-.51h-.01zm-14.25-1.75c-.53-.56-1.95-1.12-2.78-.77l-5.95 6.02c3.99 8.15 12.51-1.25 8.72-5.25zm-28.15 1.82c-6.76 5.7 2.99 13.64 6.32 4.57zm12.03 1-2.55 3.29 4.28 3.57 2.55-3.29zm19.24 11.79c2.27-4.54 8.06-7.56-.25-9.73l-5.65 5.38c0 2.04 3.99 5.47 5.89 4.35zm18.11 1.13c1.41-4.72 7.91-6.34.51-9.98l-4.34 6.66c-.2 1.54 2.69 4.12 3.83 3.32zm-54.85 2.14c.41-.34 2.27-.24 3.39-1.08 4.89-3.69 1.24-6.97-2.97-9.04-2.19 1.05-2.91 5.83-3.83 6.71-.66.63-2.5.46-3.23 1.23-2.37 2.51-5.28 5.69-3.49 9.05-1.71-2.46-6.38 2.51-5.97 3.46 1.56 1.24 3.65 5.28 5.97 4.1.67-.34 9.26-10.1 9.94-11.24.87-1.49.07-3.09.19-3.19zm13.35-9.91-3.49 5.32c3.43 7.98 11.6-3 3.49-5.32zm14.37 1.92-4.22-2.03-2.55 3.25 4.29 3.58c1.55-.77 3.46-3.13 2.48-4.8zm14.78-.08-5.61 6.44 4.55 4.47 6.36-6.6c-.29-2.04-3.26-4.93-5.3-4.31zm-22.99 3.02-4.57 4.56 3.57 4.28c4.74-1.35 6.46-7.3 1-8.84zm14.21 3.09-3.34-3.17-2.57 1.71c-1.96 2.73.65 5.47 3.52 6.29zm-29.76 4.72 4.29 2.03 3.37-4.43c-3.41-5.78-6.72-2.99-7.66 2.4zm47.83-4.81c-3.35-2.39-6.33 4.93-8.9 6.42 5.41 7.19 5.45.75 9.43-3.49.27-.64-.37-2.82-.53-2.93zm-27.84 11.84c4.43-.44 6.5-6.18 2.29-8.86-6.42 1.43-6.31 4.48-2.29 8.86zm10.06-8.77-1.7 3.85 4.94 3.94c5.92-2.42-.32-9.54-3.24-7.79zm-18.45 8.56c4.94-4.24-1.26-10.68-4.77-5.24-2.49 3.85 1.54 8.01 4.77 5.24zm-19.69 2.29c-.21.29-4.11 1.94-4.88 4.71l.34 2.28c2.66 3.72 5.51 1.54 7.39-1.68l-.49-2.43-2.36-2.88 5.01 2.57 4.88-6.28-3.39-5.26c-3.84 1.83-4.91 6.81-6.5 8.97zm32 2c-2.22-.18-5.37 1.58-5.89 3.71s1.49 3.05 1.89 4.29c-1.49-.07-3.29-1.65-5.01-.57-2.29 2.77-6.14 9.23-.42 10.53 1.95.44 6.57-6.43 5.42-9.96 1.13.05 2.86.33 3.76-.23 3.89-4.51 1.21-4.72.24-7.77 2.05.17 5.25 3.82 6.85-1.71 1.11-3.86-2.19-4.08-4.35-6.27-2.33 2.54-3.56 4.63-2.5 7.98zm14.5-7.98-3.53 4.48 2.53 3.49 3.53-4.48zm-21.52 10.97 2.95-5.35c-3.71-5.34-5.86-4.43-8.74.87zm-11.97 2.01 2.88-6.36-4.38-3.67-5.39 7.38c.69 2.73 4.43 2.96 5.54 3.98 5.91 5.42 4.92 9.65 11.23-1.69l-5.36-4.64zm37.52-8c-3.1.72-3.04 8.14 1.77 6.89 5.31-1.38.4-7.39-1.77-6.89zm-8.66 8.86 3.08-4.36-3.46-3.48c-2.26 1.99-5.28 5.6-1.99 7.97l2.36-.13zm9.05 2.06-4.42-5.91-3.58 7.36c4.24 3.68 4.66.09 8-1.45zm8.06 3.07 1.91-4.35-4.19-3.49-3.69 1.87c-.94 1.28 4.65 6.91 5.97 5.97zm-57.78-.18c.11.19 3.21 2 3.81 1.75 1.15-1.17 4.25-3.99 3.53-5.58-2.87-6.4-9.36.46-7.34 3.83zm-7.7-5.79-4.37 5.67c2.89 6.6 5.76 4.43 7.88-1.21zm38.5 6.98c-.8 1.06-6.55 8.6-7 9-1.09.97-.57-1.57-3.96 3.32-.71 1.02-2.67.16-2.02 2.16l3.48 3.5 4.34-4.65-1.84-4.33c4.04 2.69 8.37-1.67 9.04-5.52.4-2.32-3-.49-2.04-3.48l3.5 1.95 3.39-6.24-2.4-2.7c-2.43-.91-4.23 6.65-4.49 6.99zm16 3c-1.93 2.35-6.37 6.18-8.54 8.94-1.19 1.51-4.33 5.2-3.33 6.93l4.39 3.12 10.33-13.68-2.85-5.3 4.36 2.92 4.4-5.44-4.26-4.46c-2.95 1.06-3.66 5.95-4.5 6.98zm-37.51-5.75c-1.19.09-4.74 4.78-4.41 6.14.25 1.03 4.76 3.95 6.28 3.55 4.95-1.82 2.71-10.04-1.87-9.69zm30.13.8c-2.95.51-5.31 7.99-.11 7.98 5.84 0 4.37-8.72.11-7.98zm-39.62 8.95c.29-1.85 1.57-2.68 1.9-4.36l-4.36-3.64-3.62 6.39c2.31 1.74 3.37 2.98 6.08 1.61-.15.97-.21 4.2 0 5-3.9-.4-4.56 3.24-6.88 5.71 2.07 7.75 6.64 5.51 9.77-.42.86-2.39-2.43-3.54-2.89-5.29 1.84.19 3.26 2.06 4.36 1.89l3.68-4.39-4.53-5.47c-1.12 1.06-2.09 2.26-3.5 2.97zm14.31 4.68c.66.59 1.84 1.31 2.72.87 3.89-3.7 3.79-6.41-.53-9.54l-4.17 5.48c0 .36 1.54 2.8 1.97 3.18zm20.3-6.64-5.53 6.6 3.49 4.32c1.67.37 5.34-5.94 6.18-7.47l-4.15-3.44zm-44.31 2.28c-.65.57-3.33 4.46-3.34 5.18l4.43 4.45c3.35-2.5 7.02-8.21 1.63-10.47-.96-.4-2 .21-2.72.83zm18.7 12.68-4.37-1.93c-6.32 2.67-5.18 12.89 1.37 9.93-.32 2.58.38 5.54 3.36 5.92l5.39-6.43-4.11-3.42c-1.74 1.08-2.72 3.07-4.64 3.93.3-2.39 1.84-2.91 2.77-4.78.5-1 .08-3.04.23-3.22.25-.29 5.42-.49 5.66-4.51l-4.16-5.46-4.36 5.65 2.86 4.33zm-13 7c.17-.96.26-2.98-.22-3.76l-10.28-9.22c-1.39 1.56-5.03 4.96-4.07 6.96 1.21 2.52 4.39 2.42 5.31 3.34.55.55 1.95 4.99 4.9 5.61 1.32.24 2.9-2.15 4.35-2.92-.34 1.95-2.76 4.29-1.87 5.87l5.74 2 3.08-4.37-4-4.04c-1.19-.74-1.98.03-2.96.54h.02zm31.65-12.91-3.7 4.46c1.58 10.36 11.67-2.1 3.7-4.46zm-11 3c-1 .17-3.68 3.14-3.68 4.41l3.54 4.48c3.35-1.79 4.76-9.68.14-8.9zm34.36 25.91c6.65-7.17 13.05-16.06 16.98-25l-8.62 10.35c-1.12 5.8-7.26 8.96-8.36 14.65zm-18.99-23.99-3.06 5.49 4.4 4.43c6.33-4.04 5.19-7.5-1.34-9.92zm-9.15 10.85 3.08-4.36-4.42-3.5c-4.97 2.6-2.83 10.28 1.34 7.86zm2.13 5.15c6.56 3.08 8.77-7.2 1.6-7.92-4.05 1.62-2.26 6.68-2.59 6.91-.43.29-2.58-.46-3.8.22-.49.27-2.83 4.85-3.83 5.73-.34 1.27 3.2 4.49 4.3 4.91 2.69 1.01 8.55-7.55 4.32-9.84zm-34-1.01c-.21 3.41-4.86 5.03 1.65 8.89 1.29.23 2.32-1.44 3.35-1.89-.21 6.83 1.99 8.36 6.95 2.5-2.67-3.01-3.05-4.2-6.95-2.5.04-1.21 1.23-2.35.53-3.96s-3.66-3.39-5.53-3.04c.17-2.8-1.76-5.36-4.5-6.03-3.1 1.07-5.73 4.27-3.04 7.05 4.31 4.46 5.37-.61 7.54-1.02zm28.99-2.98-4-1.59-4.97 7.53 3.98 1.62c.76-1.35 5.83-6.45 4.98-7.56zm-19.85 7.85 4.23 2.05c4.79-3.17 4.34-7.66-1.35-8.9l-2.88 6.86zm35.86 12.14-19.98 10.49c1.71 2.26 1.69 1.36 3.53.55 5.2-2.28 13.17-6.47 16.45-11.04z"/><path d="m307.33 365.06c-.47 2.72-3.71 5.67-3.69 6.51.02.97 2.33 1.7 1.68 3.49-2.23-1.06-2.56-2.14-4.99-1 .21-1.84-.22-3.37-1-4.99 5.28 2.56 4.31-2.13 8-4.01z"/><path d="m611.33 47.06h3v1.98c-3.38.1-2.75 3.14-3.9 5.55l5.89 1.97-4.37 2.42-.61 3.08 9.98-3.04c-1.9-6.19-1.26-13.87.3-20.16.32-1.28 1.39-5.31 2.69-5.79-1.51 8.47-2.77 16.9-1.63 25.55l1.25 1.29 6.38.16-5.03 5.42 8.03 11.57c-2.19 2.1-9.33-10.6-10.6-10.91l-7.38 4.41c2.05 3.95 5.84-1.47 6.97-.5 2.14 1.84-4.39 2.73-3.91 5.35 3.39 5.16 5.5 7.09 11.91 5.66-1.23 2.39-4.25 1.11-2 4.98-7.02-2.39-13.99 2.95-20.35 6.15-7.87 3.96-15.44 8.46-22.97 13.03l-10.16 7.83c-.8-.95 1.33-3.4 1.98-4.01 8.62-7.99 23.98-19.21 34.97-23.03 2.15-.75 9.21-1.61 9.55-1.97 1.38-1.48-5.08-7.76-6.47-7.59-10.23 4.4-20.01 12.08-29.86 16.77-3.83 1.83-11.06 5.9-13.66 1.32l9.98-9.01-1.48-.48c-11.78 7.75-23.19 16.43-35.21 23.79-1.24.76-6.34 4.13-7.3 3.19-1.09-5.56 8.66-9.39 9.84-11.21.4-.61-1.2-3.61.68-4.7l30.47-23.58c-2.57-.21-6.57 1.94-8.89 3.11-11.19 5.67-26.65 17.35-36.59 25.42-13.31 10.81-25.72 23.1-37.02 35.97-1.95-5.01 7.76-7.25 7.01-11.99-11.81 12.86-25.94 24.53-37.53 37.47-4.48 5-7.72 11.22-12.96 15.53l10.02-14.47c40.1-46.56 88.88-87.12 144.66-112.84 4.51-6.53 3.14-15.49 8.81-21.69l-4.51 17.99h.02zm-4.01 6c-.68-.79-17.34 7.12-19.19 8.08-.94.49-1.52 2.03-3.2 2.96-3.6 1.99-9.27 2.32-11.6 6.94 3.69-1.02 6.38-3.19 10.26-4.32 1.78-.52 3.53.28 4.75-.15 2.7-.95 18.34-7.78 18.83-9.19.46-1.29.11-2.95.16-4.33h-.01zm1.01 10.99-1.49-2.96c-7.43 5.36-17.1 8.52-23.51 14.97l25-12z"/><path d="m658.11 16.3c5.87-.71 7.25 2.77 10.75 2.67 1.7-.05 2.85-1.7 4.53-1.43 5.88.94 12.86 7.08 15.75 12.21 16.63 29.48-18.79 60.6-43.83 37.83-14.84-13.49-12.98-35.38 3.08-46.94 2.52-1.81 6.6-3.95 9.71-4.33zm10.2 45.75c3.37-5.57 8.41-15.38 14.12-18.39 2.38-1.25 6.42-.59 6.94-4.13 1.1-7.53-9.7-18.2-16.47-20.54-4.71 4.38-4.19 10.46-8.14 16.01-2.65 3.71-7.64 6.21-9.85 9.15-2.39 3.18-3.04 8.71-4.6 12.4 3.55 2.78 4.16-11.44 7.02-8.48l-3.99 9.98 6.99-6.98-3.98 7.5c.02 1.11 4.68 1.67 5.32 1.54 1.25-.27-.04-2.46 1.65-2.04l.51 2.99 4.49-5c1.18 2.4-5.42 5.75 0 5.99zm-.98-41.98c-6.2-.64-15.72 1.85-20.04 6.47-3.09 3.3-.58 3.55-1.18 5.79-.7 2.6-2.76 4.88-2.78 7.73l4.01-4.99.99 5.99c11.27-1.54 15.39-11.34 18.99-20.99zm22 24.99c-3.49-3.45-15.28 12.58-13.98 17l6.49-7.99-2.5 7.99 3.01-3.99c1.46-.49.73 3.88 2.97 1.99.6-.51 5.22-13.06 4.01-15z"/><path d="m687.33 168.07c1.76 5.54-13.91 17.56-11.99 19.99 3.71-1.44 5.24-5.4 8.52-7.97 2.37-1.86 4.72-2.54 6.97-4.03 2.71-1.8 8.15-9.38 11.5-4.01-8.64-.97-24.52 20.69-29.31 20.77-6.24.11 1.36-8.6 3.34-11.23 2.36-3.14 8.5-7.12 7.48-11.52l-25.02 26.02c-2.2 4.66 6.36 10.11.53 13.97-.6-7.39-8.12-13.02-8.09-20.5 0-2.7 1.41-5.04 1.06-7.9-.29-2.45-3.97-7.45-3.96-8.11.07-4.3 5.62 2.97 6.21 4.78 1.74 5.31-.84 10.58 2.29 14.73 5.36 1.06 20.18-28.99 30.47-25z"/><path d="m635.68 825.41c-14.06 15.63-28.38 31.4-43.85 45.65l-.49-1.48 34.71-34.71c3.93-10.23 18.81-22.42 26.26-32.32l20.01-35.48c.04 8.72-5.55 18.84-10.18 26.3-7.59 12.25-17.12 21.66-26.46 32.04z"/><path d="m645.32 807.05c-2.86-1.74 1-6.91 1.52-9 3.79-15.16 8.77-34.02 10.24-49.74 1.01-10.72-.2-21.95.25-32.76.05-1.22-.76-3.72.99-3.48.23 15.51 1.68 30.88-.11 46.37-1.92 16.54-6.99 33.14-12.89 48.62z"/><path d="m509.33 769.07c-16.66 16.02-32.71 29.2-45.83 48.66-3.91 5.81-6.58 14.05-12.16 18.33l12.18-22.3c8.04-12.67 19.43-22.49 29.79-33.21l16.01-11.48z"/><path d="m581.33 51.07-68.99 49.99c-1.04-1.09 3.09-4.67 3.98-5.51 12.93-12.24 32.86-26.53 48.1-35.9 5.17-3.18 11.11-6.95 16.92-8.57h-.01z"/><path d="m616.33 344.07-43 43.98c3.5-6.46 9.77-13.08 14.97-18.52 5.93-6.19 11.93-10.56 17.92-16.08 2.97-2.73 5.58-8.51 10.11-9.38z"/><path d="m197.32 356.05c-1.51.22-1.62-2.14-1.46-3.07 1.8-10.31 13.4-32.42 19.66-41.24 2.78-3.92 5.81-7.92 9.81-10.68l-16.17 24.32-11.83 30.67z"/><path d="m657.33 265.07-19.99 51.99c.03-7.19 4.19-13.5 6.49-20 3.56-10.05 6.96-19.9 11.26-29.79.62-1.43-.65-2.74 2.24-2.2z"/><path d="m176.32 400.07c-.23 14.89 2.25 29.47 5 43.99l-3.69-9.79c-.85-10.16-4.57-22.69-3.3-32.72.19-1.46.76-3.1 2-1.48z"/><path d="m677.34 197.05c-.43-1.88 1.06-2.37 1.99-3.5 1.3-1.56 16.22-16.36 16.99-15.5.44 1.88-1.04 2.38-1.99 3.5-2.23 2.65-6.65 7.73-9.01 9.99-.81.78-7.3 6.21-7.99 5.5h.01z"/><path d="m611.33 307.07c-3.65 5.91-5.36 12.64-11.99 15.99l6.49-13 1.48 1.99c.13-.84 2.27-6.67 4.01-4.98z"/><path d="m640.33 8.07c-2.98 3.39-8.88 3.68-13 5.49-4.61 2.03-8.95 5.84-14 6.49 7.71-5.89 17.19-10.79 27-11.98z"/><path d="m676.31 85.02c-7.21 1.62-12.71 7.98-20.97 7.03l20.5-9.98.47 2.96z"/><path d="m458.32 450.06 7.01 25c-2.83.51-1.65-.67-2.25-2.19-2.76-6.96-4.3-14.27-6.75-21.32z"/><path d="m580.34 488.06 6.98-23.99c-.1 7.73-2.04 18.09-6.98 23.99z"/><path d="m585.32 537.07c-1.19 4-1.81 10.25-4.98 12.99l1.03-9.28 3.96-3.71z"/><path d="m595.32 737.07c-2.17 6.65 2.33 12.26 3.95 18.55 3.19 12.4 3.46 24.02.04 36.44-1.46 1.46-1.8-.11-1.99-1.48-.54-3.98.82-7.65.99-11.53l-1.98 1.01.98-9-1.98 1.99c.59-7.2 4.35-11.36 1.98-19l-1.98 1.01c-.5-3.84 1.39-9.57-4.02-9.02 1.35-2.08 1.4-4.32 2-6.54.44-1.62-1.06-2.95 2.01-2.44z"/><path d="m589.32 817.07c.43 1.87-1.05 2.37-1.99 3.5-8.54 10.16-28.16 26.97-40.47 31.54-2.62.97-4.27 1.61-6.09-1.07l.56-5.98 1.97.48c-2.02 2.98-1.07 6.59 2.97 4.99 7.92-3.13 17.13-11.98 24.96-16.05l18.08-17.41z"/><path d="m583.34 736.06c-.04-4.38 3.43-7.53 5.19-11.3 1.5-3.21.85-8.03 4.79-9.7-1.93 7.35-4.81 15.3-9.98 21z"/><path d="m561.33 846.07c-3.59 4.09-8.32 8.51-12.5 11.99-1.12.94-1.62 2.42-3.5 1.99l2.99-4.5z"/><path d="m559.32 775.06c-1.94-.29-.99-5.01-.86-6.36.22-2.18 1-4.56 1.18-6.82l2.68-5.81c.55 6.7-3.85 12.38-3 18.99z"/><path d="m589.33 657.05c-8.36-2.33-17.52-5.34-25.36-9.13-1.13-.54-12.59-5.87-10.63-7.86 9.82 7.15 22.16 9.63 32.77 14.72 1.19.57 2.96.54 3.22 2.27z"/><path d="m477.09 369.82c-2.82 2.69-3.74-1.54-6.27-1.79s-6.66 3.23-7.48-1.46l2.64-2.4c3.56 2.38 6.63 1.88 10.73 2.02 2.04.54 1.36 2.71.39 3.63z"/><path d="m477.32 330.05c-1.74.24-.94-2.27-.99-3.48-.12-3.34-.51-6.68 1.54-9.47 2.43-3.31 5.21-1.79 3.97.95-1.66 3.67-4.98 7.4-4.52 12z"/></svg>